<?xml version="1.0" encoding="UTF-8" standalone="no"?>
<!-- Generator: Adobe Illustrator 12.0.0, SVG Export Plug-In . SVG Version: 6.00 Build 51448)  -->

<svg
   version="1.0"
   id="Layer_1"
   width="450"
   height="370.42505"
   viewBox="0 0 448.94922 370.42465"
   overflow="visible"
   enable-background="new 0 0 448.9492188 449.9995117"
   xml:space="preserve"
   sodipodi:version="0.32"
   inkscape:version="1.1 (ce6663b3b7, 2021-05-25)"
   sodipodi:docname="county.svg"
   xmlns:inkscape="http://www.inkscape.org/namespaces/inkscape"
   xmlns:sodipodi="http://sodipodi.sourceforge.net/DTD/sodipodi-0.dtd"
   xmlns="http://www.w3.org/2000/svg"
   xmlns:svg="http://www.w3.org/2000/svg"
   xmlns:rdf="http://www.w3.org/1999/02/22-rdf-syntax-ns#"
   xmlns:cc="http://creativecommons.org/ns#"
   xmlns:dc="http://purl.org/dc/elements/1.1/"><metadata
   id="metadata54"><rdf:RDF><cc:Work
       rdf:about=""><dc:format>image/svg+xml</dc:format><dc:type
         rdf:resource="http://purl.org/dc/dcmitype/StillImage" /></cc:Work></rdf:RDF></metadata><defs
   id="defs52" /><sodipodi:namedview
   inkscape:window-height="1016"
   inkscape:window-width="1848"
   inkscape:pageshadow="2"
   inkscape:pageopacity="0.0"
   borderopacity="1.0"
   bordercolor="#666666"
   pagecolor="#ffffff"
   id="base"
   inkscape:zoom="1.78"
   inkscape:cx="275.5618"
   inkscape:cy="207.58427"
   inkscape:window-x="72"
   inkscape:window-y="27"
   inkscape:current-layer="g3"
   inkscape:pagecheckerboard="0"
   showgrid="false"
   inkscape:snap-object-midpoints="true"
   inkscape:window-maximized="1" />
<g
   id="g3"
   transform="scale(1,0.82316675)"
   style="fill:#333333;stroke:#4d4d4d">
	<path
   clip-rule="evenodd"
   d="M 94.170481,449.99951 1.4208031,128.3374 c -1.26711763,-4.39648 -1.9459481,-9.04101 -1.9459481,-13.84375 0,-21.001951 12.978533,-38.979002 31.370092,-46.384763 L 177.5849,9.0478516 C 192.06841,3.2128906 207.89539,0 224.47461,0 c 16.57873,0 32.40572,3.2128906 46.88971,9.0478516 L 418.10427,68.108887 c 18.39156,7.405761 31.3701,25.382812 31.3701,46.384763 0,4.80274 -0.67835,9.44727 -1.94596,13.84375 l -92.74968,321.66211 z"
   id="path5"
   style="fill:#4d4d4d;fill-rule:evenodd;stroke:#4d4d4d" />
	
	<path
   clip-rule="evenodd"
   d="m 19.782183,118.78909 c 0,-15.3245 9.462041,-28.468635 22.915872,-33.885757 L 183.73492,28.137351 c 12.56807,-5.063271 26.31355,-7.857479 40.73969,-7.857479 14.42614,0 28.17208,2.794208 40.73922,7.857479 l 141.03638,56.765982 c 13.4543,5.417122 22.91683,18.561257 22.91683,33.885757 0,3.52726 -0.49769,6.91795 -1.41967,10.11763 l -86.7375,300.81292 H 107.93981 L 21.201843,128.90672 c -0.921979,-3.19922 -1.41966,-6.59037 -1.41966,-10.11763 z"
   id="path9"
   style="fill:#4d4d4d;fill-rule:evenodd;stroke:#ececec;stroke-width:15.8901;stroke-miterlimit:4;stroke-dasharray:none" />
	
</g>








</svg>
