<?xml version="1.0" encoding="UTF-8" standalone="no"?>
<!-- Created with Inkscape (http://www.inkscape.org/) -->

<svg
   version="1.0"
   width="100.09876"
   height="100.00024"
   viewBox="0 0 100.09876 100.00024"
   id="Layer_1"
   xml:space="preserve"
   sodipodi:docname="interstate.svg"
   inkscape:version="1.1 (ce6663b3b7, 2021-05-25)"
   xmlns:inkscape="http://www.inkscape.org/namespaces/inkscape"
   xmlns:sodipodi="http://sodipodi.sourceforge.net/DTD/sodipodi-0.dtd"
   xmlns="http://www.w3.org/2000/svg"
   xmlns:svg="http://www.w3.org/2000/svg"
   xmlns:rdf="http://www.w3.org/1999/02/22-rdf-syntax-ns#"
   xmlns:cc="http://creativecommons.org/ns#"
   xmlns:dc="http://purl.org/dc/elements/1.1/"><sodipodi:namedview
   id="namedview875"
   pagecolor="#505050"
   bordercolor="#eeeeee"
   borderopacity="1"
   inkscape:pageshadow="0"
   inkscape:pageopacity="0"
   inkscape:pagecheckerboard="0"
   showgrid="false"
   inkscape:snap-object-midpoints="true"
   inkscape:snap-bbox="true"
   showguides="true"
   inkscape:guide-bbox="true"
   inkscape:object-paths="true"
   inkscape:snap-bbox-midpoints="true"
   inkscape:zoom="3.549676"
   inkscape:cx="49.722847"
   inkscape:cy="49.441132"
   inkscape:window-width="1848"
   inkscape:window-height="1016"
   inkscape:window-x="72"
   inkscape:window-y="27"
   inkscape:window-maximized="1"
   inkscape:current-layer="Layer_1"><sodipodi:guide
     position="50.04938,99.904028"
     orientation="1,0"
     id="guide34378" /></sodipodi:namedview><metadata
   id="metadata36"><rdf:RDF><cc:Work
       rdf:about=""><dc:format>image/svg+xml</dc:format><dc:type
         rdf:resource="http://purl.org/dc/dcmitype/StillImage" /></cc:Work></rdf:RDF></metadata><defs
   id="defs1659">
	
	
	
	
</defs>
<g
   transform="matrix(0.16655368,0,0,0.16636565,0.08327676,0.09613061)"
   style="fill:#ffffff;fill-opacity:1;stroke:#000000;stroke-width:0.999999;stroke-miterlimit:4;stroke-dasharray:none;stroke-opacity:1"
   id="g1600">
		<path
   id="path1602"
   style="fill:#ffffff;fill-opacity:1;stroke:#000000;stroke-width:0.999999;stroke-miterlimit:4;stroke-dasharray:none;stroke-opacity:1"
   d="m 80.75293,0 c 34.67578,10.583496 71.48486,16.276856 109.62402,16.276856 38.13868,0 74.94727,-5.69336 109.62305,-16.2763677 34.67578,10.5830077 71.48438,16.2763677 109.62305,16.2763677 38.13867,0 74.94824,-5.69336 109.62402,-16.276856 C 569.8125,63.908203 600,144.67822 600,232.5 600,413.92383 471.16992,565.25391 300,599.99902 128.83008,565.25391 0,413.92383 0,232.5 0,144.67822 30.187988,63.907715 80.75293,0 Z" />
		
			<path
   id="path1604"
   style="fill:#ffffff;fill-opacity:1;stroke:#000000;stroke-width:0.999999;stroke-linecap:round;stroke-linejoin:round;stroke-miterlimit:4;stroke-dasharray:none;stroke-opacity:1"
   d="m 80.75293,0 c 34.67578,10.583496 71.48486,16.276856 109.62402,16.276856 38.13868,0 74.94727,-5.69336 109.62305,-16.2763677 34.67578,10.5830077 71.48438,16.2763677 109.62305,16.2763677 38.13867,0 74.94824,-5.69336 109.62402,-16.276856 C 569.8125,63.908203 600,144.67822 600,232.5 600,413.92383 471.16992,565.25391 300,599.99902 128.83008,565.25391 0,413.92383 0,232.5 0,144.67822 30.187988,63.907715 80.75293,0 Z" />
	</g><g
   style="fill:#666666;fill-opacity:1;stroke:none;stroke-opacity:1"
   transform="matrix(0.16773512,0,0,0.16807667,-0.27115486,-0.51424001)"
   id="g1606">
		<path
   id="path1608"
   style="fill:#666666;fill-opacity:1;stroke:none;stroke-opacity:1"
   d="m 15,232.5 c 0,-31.979 4.169434,-62.98389 11.994629,-92.50098 H 573.00586 C 580.83008,169.51611 585,200.521 585,232.5 585,405.60547 462.82617,550.17188 300,584.67676 137.17432,550.17188 15,405.60547 15,232.5 Z" />
	</g><g
   style="fill:#333333;fill-opacity:1;stroke:none;stroke-opacity:1"
   transform="matrix(0.16864328,0,0,0.17088224,-0.54359833,-0.41989371)"
   id="g1610">
		<path
   id="path1612"
   style="fill:#333333;fill-opacity:1;stroke:none;stroke-opacity:1"
   d="M 31.324219,124.99902 C 43.579102,85.77832 62.362793,49.44043 86.402832,17.259766 c 33.101558,9.132812 67.967778,14.012695 103.974118,14.012695 38.06055,0 74.84766,-5.45166 109.62305,-15.617676 34.77539,10.166016 71.5625,15.617676 109.62305,15.617676 36.00586,0 70.87304,-4.879883 103.97461,-14.012695 24.03906,32.180664 42.82324,68.518554 55.07812,107.739254 z" />
	</g>






</svg>
