<?xml version="1.0" encoding="UTF-8" standalone="no"?>
<svg
   version="1.1"
   x="0px"
   y="0px"
   viewBox="0 0 64 48.000526"
   enable-background="new 0 0 64 64"
   xml:space="preserve"
   id="svg1644"
   width="64"
   height="48.000526"
   xmlns="http://www.w3.org/2000/svg"
   xmlns:svg="http://www.w3.org/2000/svg"
   xmlns:rdf="http://www.w3.org/1999/02/22-rdf-syntax-ns#"
   xmlns:cc="http://creativecommons.org/ns#"
   xmlns:dc="http://purl.org/dc/elements/1.1/"
   xmlns:x="adobe:ns:meta/"><defs
     id="defs1648">fill=&quot;param(fill)&quot; fill-opacity=&quot;param(fill-opacity)&quot; stroke=&quot;param(outline)&quot; stroke-opacity=&quot;param(outline-opacity)&quot; stroke-width=&quot;param(outline-width)&quot;</defs><title
     id="title1626">Reading</title><desc
     id="desc1628">Reading</desc><metadata
     id="metadata1630"><?xpacket begin="&#65279;" id="W5M0MpCehiHzreSzNTczkc9d"?><x:xmpmeta
       x:xmptk="Adobe XMP Core 5.6-c148 79.163858, 2019/03/06-03:18:36        " /><?xpacket end="w"?><rdf:RDF><cc:Work
         rdf:about=""><dc:title>Reading</dc:title></cc:Work></rdf:RDF></metadata><path
     id="path1632"
     d="M 15.441406 0.009765625 C 11.765449 0.09671875 8.1514062 0.79281249 4.6601562 2.0703125 C 4.2601562 2.2103125 4 2.5897656 4 3.0097656 L 4 39 C 4 39.34 4.1692187 39.649844 4.4492188 39.839844 C 4.7392188 40.019844 5.0903906 40.049922 5.4003906 39.919922 C 7.9303906 38.799922 11.980156 37.56 16.910156 38 C 24.440156 38.68 29.089688 41.889688 30.679688 43.179688 C 30.809687 43.279688 30.91 43.371172 31 43.451172 L 31 3.3691406 C 27.67 1.7691406 22.869531 0.13976563 17.019531 0.009765625 C 16.492031 -0.002734375 15.966543 -0.00265625 15.441406 0.009765625 z M 46.980469 0.009765625 C 41.130469 0.13976563 36.33 1.7691406 33 3.3691406 L 33 43.451172 C 33.09 43.371172 33.190313 43.279688 33.320312 43.179688 C 34.910313 41.889688 39.559844 38.68 47.089844 38 C 52.019844 37.56 56.069609 38.799922 58.599609 39.919922 C 58.899609 40.049922 59.260781 40.019844 59.550781 39.839844 C 59.830781 39.649844 60 39.34 60 39 L 60 3.0097656 C 60 2.5887656 59.739844 2.2103125 59.339844 2.0703125 C 58.239844 1.6703125 57.13 1.3190625 56 1.0390625 L 56 11 C 56 11.4 55.760859 11.769922 55.380859 11.919922 C 55.260859 11.979922 55.13 12 55 12 C 54.74 12 54.479062 11.900937 54.289062 11.710938 L 52 9.4101562 L 49.710938 11.710938 C 49.420938 11.990937 48.989141 12.079922 48.619141 11.919922 C 48.239141 11.768922 48 11.399 48 11 L 48 0.009765625 C 47.66 -0.0002343764 47.320469 -0.0002343764 46.980469 0.009765625 z M 16.703125 8.0039062 C 17.490313 7.9904687 18.280313 8.0128125 19.070312 8.0703125 C 21.950312 8.2803125 24.740625 8.9600779 27.390625 10.080078 C 27.900625 10.289078 28.139922 10.880625 27.919922 11.390625 C 27.759922 11.769625 27.39 12 27 12 C 26.87 12 26.739375 11.969922 26.609375 11.919922 C 24.169375 10.879922 21.579688 10.260547 18.929688 10.060547 C 15.999688 9.8505467 13.099297 10.160234 10.279297 10.990234 C 9.7492969 11.150234 9.1990625 10.850312 9.0390625 10.320312 C 8.8790625 9.7903123 9.1907031 9.2303125 9.7207031 9.0703125 C 12.000703 8.4028125 14.341562 8.0442187 16.703125 8.0039062 z M 44.929688 8.0703125 C 45.489688 8.0303125 45.96 8.4402344 46 8.9902344 C 46.04 9.5402344 45.620312 10.018594 45.070312 10.058594 C 42.420313 10.258594 39.830625 10.879922 37.390625 11.919922 C 37.260625 11.970922 37.13 12 37 12 C 36.61 12 36.240078 11.770625 36.080078 11.390625 C 35.860078 10.880625 36.099375 10.290078 36.609375 10.080078 C 39.249375 8.9600779 42.049688 8.2803125 44.929688 8.0703125 z M 2 9.0605469 C 1.55 9.2005469 1.1196875 9.3402344 0.6796875 9.4902344 C 0.2696875 9.6302344 0 10.009453 0 10.439453 L 0 47 C 0 47.34 0.18070313 47.659609 0.47070312 47.849609 C 0.76070313 48.029609 1.1196875 48.050391 1.4296875 47.900391 C 6.3896875 45.550391 11.669375 44.039687 17.109375 43.429688 C 19.729375 43.139687 22.37 43.049687 25 43.179688 L 27.130859 43.179688 C 24.920859 41.889688 21.450469 40.420234 16.730469 39.990234 C 16.110469 39.940234 15.489141 39.910156 14.869141 39.910156 C 11.149141 39.910156 8.1109375 40.91 6.2109375 41.75 C 5.8009375 41.92 5.41 42 5 42 C 4.44 42 3.8803906 41.841016 3.4003906 41.541016 C 2.5003906 40.931016 2 40 2 39 L 2 9.0605469 z M 62 9.0605469 L 62 39 C 62 40 61.499922 40.93 60.669922 41.5 C 60.119922 41.84 59.560234 42 58.990234 42 C 58.580234 42 58.180547 41.919766 57.810547 41.759766 C 55.890547 40.909766 52.850859 39.910156 49.130859 39.910156 C 48.510859 39.910156 47.889531 39.940234 47.269531 39.990234 C 42.549531 40.420234 39.069375 41.899687 36.859375 43.179688 L 39.050781 43.179688 C 41.630781 43.049688 44.270625 43.139688 46.890625 43.429688 C 52.330625 44.039687 57.610312 45.550391 62.570312 47.900391 C 62.710313 47.970391 62.85 48 63 48 C 63.19 48 63.369297 47.949609 63.529297 47.849609 C 63.819297 47.659609 64 47.34 64 47 L 64 10.439453 C 64 10.009453 63.730312 9.6302344 63.320312 9.4902344 C 62.880312 9.3402344 62.45 9.2005469 62 9.0605469 z M 16.703125 15.003906 C 17.490313 14.990312 18.280313 15.012812 19.070312 15.070312 C 21.950312 15.280313 24.750625 15.960078 27.390625 17.080078 C 27.900625 17.290078 28.139922 17.880625 27.919922 18.390625 C 27.759922 18.770625 27.39 19 27 19 C 26.87 19 26.739375 18.969922 26.609375 18.919922 C 24.169375 17.879922 21.579688 17.260547 18.929688 17.060547 C 15.999688 16.850547 13.099297 17.160234 10.279297 17.990234 C 9.7492969 18.150234 9.1990625 17.850313 9.0390625 17.320312 C 8.8790625 16.790312 9.1907031 16.230078 9.7207031 16.080078 C 12.000703 15.405078 14.341562 15.044687 16.703125 15.003906 z M 47.296875 15.003906 C 49.658438 15.044687 51.999297 15.405078 54.279297 16.080078 C 54.809297 16.230078 55.120937 16.790313 54.960938 17.320312 C 54.800938 17.850313 54.250703 18.150234 53.720703 17.990234 C 50.900703 17.160234 48.000312 16.850547 45.070312 17.060547 C 42.420313 17.260547 39.830625 17.879922 37.390625 18.919922 C 37.260625 18.969922 37.13 19 37 19 C 36.61 19 36.240078 18.770625 36.080078 18.390625 C 35.860078 17.880625 36.099375 17.290078 36.609375 17.080078 C 39.249375 15.960078 42.049688 15.280312 44.929688 15.070312 C 45.719687 15.012812 46.509687 14.990312 47.296875 15.003906 z M 16.703125 22.003906 C 17.490313 21.990313 18.280313 22.012812 19.070312 22.070312 C 21.950312 22.280313 24.740625 22.960078 27.390625 24.080078 C 27.900625 24.300078 28.139922 24.880625 27.919922 25.390625 C 27.759922 25.770625 27.39 26 27 26 C 26.87 26 26.739375 25.979922 26.609375 25.919922 C 24.169375 24.879922 21.579688 24.260547 18.929688 24.060547 C 15.999688 23.850547 13.099297 24.160234 10.279297 24.990234 C 9.7492969 25.150234 9.1990625 24.850312 9.0390625 24.320312 C 8.8790625 23.790312 9.1907031 23.230078 9.7207031 23.080078 C 12.000703 22.405078 14.341562 22.044687 16.703125 22.003906 z M 47.296875 22.003906 C 49.658438 22.044687 51.999297 22.405078 54.279297 23.080078 C 54.809297 23.230078 55.120937 23.790313 54.960938 24.320312 C 54.800938 24.850313 54.250703 25.150234 53.720703 24.990234 C 50.900703 24.160234 48.000312 23.850547 45.070312 24.060547 C 42.420313 24.260547 39.830625 24.879922 37.390625 25.919922 C 37.260625 25.979922 37.13 26 37 26 C 36.61 26 36.240078 25.770625 36.080078 25.390625 C 35.860078 24.880625 36.099375 24.300078 36.609375 24.080078 C 39.259375 22.960078 42.049688 22.280312 44.929688 22.070312 C 45.719687 22.012812 46.509687 21.990313 47.296875 22.003906 z M 16.703125 29.003906 C 17.490313 28.990313 18.280313 29.012812 19.070312 29.070312 C 21.950312 29.280313 24.750625 29.960078 27.390625 31.080078 C 27.900625 31.290078 28.139922 31.880625 27.919922 32.390625 C 27.759922 32.770625 27.39 33 27 33 C 26.87 33 26.739375 32.969922 26.609375 32.919922 C 24.169375 31.879922 21.579688 31.260547 18.929688 31.060547 C 15.999688 30.850547 13.099297 31.160234 10.279297 31.990234 C 9.7492969 32.150234 9.1990625 31.850313 9.0390625 31.320312 C 8.8790625 30.790312 9.1907031 30.230078 9.7207031 30.080078 C 12.000703 29.405078 14.341562 29.044687 16.703125 29.003906 z M 47.296875 29.003906 C 49.658438 29.044687 51.999297 29.405078 54.279297 30.080078 C 54.809297 30.230078 55.120937 30.790313 54.960938 31.320312 C 54.800938 31.850313 54.250703 32.150234 53.720703 31.990234 C 50.900703 31.160234 48.000312 30.850547 45.070312 31.060547 C 42.420313 31.260547 39.830625 31.879922 37.390625 32.919922 C 37.260625 32.979922 37.13 33 37 33 C 36.61 33 36.240078 32.770625 36.080078 32.390625 C 35.860078 31.880625 36.099375 31.300078 36.609375 31.080078 C 39.259375 29.960078 42.049688 29.280312 44.929688 29.070312 C 45.719687 29.012812 46.509687 28.990313 47.296875 29.003906 z " fill="param(fill)" fill-opacity="param(fill-opacity)" stroke="param(outline)" stroke-opacity="param(outline-opacity)" stroke-width="param(outline-width)"/></svg>
