<?xml version="1.0" encoding="UTF-8" standalone="no"?>
<svg
   version="1.1"
   x="0px"
   y="0px"
   viewBox="0 0 63.999187 64"
   enable-background="new 0 0 64 64"
   xml:space="preserve"
   id="svg1248"
   width="63.999187"
   height="64"
   xmlns="http://www.w3.org/2000/svg"
   xmlns:svg="http://www.w3.org/2000/svg"
   xmlns:rdf="http://www.w3.org/1999/02/22-rdf-syntax-ns#"
   xmlns:cc="http://creativecommons.org/ns#"
   xmlns:dc="http://purl.org/dc/elements/1.1/"
   xmlns:x="adobe:ns:meta/"><defs
     id="defs1252" /><title
     id="title1226">School</title><desc
     id="desc1228">School</desc><metadata
     id="metadata1230"><?xpacket begin="&#65279;" id="W5M0MpCehiHzreSzNTczkc9d"?><x:xmpmeta
       x:xmptk="Adobe XMP Core 5.6-c148 79.163858, 2019/03/06-03:18:36        " /><?xpacket end="w"?><rdf:RDF><cc:Work
         rdf:about=""><dc:title>School</dc:title></cc:Work></rdf:RDF></metadata><path
     id="path1232"
     d="m 32,0 c -0.55,0 -1,0.45 -1,1 v 11.630859 l -18.349609,21.25 -0.410157,0.46875 c -0.25,0.29 -0.31039,0.710313 -0.15039,1.070313 C 12.249844,35.769922 12.61,36 13,36 h 4 v 27 c 0,0.55 0.45,1 1,1 h 8 V 53 c 0,-2.76 2.24,-5 5,-5 h 2 c 2.76,0 5,2.24 5,5 v 11 h 8 c 0.55,0 1,-0.45 1,-1 V 36 h 4 c 0.39,0 0.750156,-0.230078 0.910156,-0.580078 0.16,-0.36 0.09961,-0.780313 -0.15039,-1.070313 L 51.349609,33.880859 33,12.630859 V 8 h 10 c 0.55,0 1,-0.45 1,-1 V 1 C 44,0.45 43.55,0 43,0 Z M 32,14.529297 48.708984,33.880859 48.810547,34 H 46.449219 L 46.349609,33.880859 32.75,18.339844 c -0.38,-0.43 -1.12,-0.43 -1.5,0 L 17.650391,33.880859 17.548828,34 h -2.359375 l 0.09961,-0.119141 z M 5,20 c -0.41,0 -0.7796875,0.250859 -0.9296875,0.630859 l -4.00195313,10 c -0.11999999,0.31 -0.08039062,0.659688 0.09960938,0.929688 0.19,0.28 0.50007812,0.439453 0.83007813,0.439453 H 11.634766 L 22,20 Z m 37,0 10.365234,12 H 63 c 0.33,0 0.640078,-0.159453 0.830078,-0.439453 0.18,-0.27 0.219609,-0.619688 0.09961,-0.929688 l -4.001954,-10 C 59.777734,20.250859 59.408047,20 58.998047,20 Z m -10,8 c 3.48,0 6.370391,2.550859 6.900391,5.880859 C 38.970391,34.240859 39,34.62 39,35 c 0,3.86 -3.14,7 -7,7 -3.86,0 -7,-3.14 -7,-7 0,-0.38 0.02961,-0.759141 0.09961,-1.119141 C 25.629609,30.550859 28.52,28 32,28 Z m 0,4 c -0.55,0 -1,0.45 -1,1 v 3 c 0,0.27 0.109062,0.520938 0.289062,0.710938 l 1,1 C 32.489063,37.900937 32.74,38 33,38 c 0.26,0 0.508984,-0.09906 0.708984,-0.289062 0.39,-0.390001 0.39,-1.031876 0,-1.421876 L 33,35.589844 V 33 c 0,-0.55 -0.45,-1 -1,-1 z M 3,34 c -0.55,0 -1,0.44 -1,1 v 26 c 0,0.56 0.45,1 1,1 H 15 V 38 H 13 C 11.83,38 10.759531,37.31 10.269531,36.25 9.9295309,35.48 9.9187496,34.75 10.21875,34 Z m 50.779297,0 c 0.3,0.75 0.291172,1.48 -0.04883,2.25 C 53.240469,37.31 52.17,38 51,38 h -2 v 24 h 12 c 0.55,0 1,-0.44 1,-1 V 35 c 0,-0.56 -0.45,-1 -1,-1 z M 8,42 h 5 v 4 H 8 Z m 43,0 h 5 v 4 h -5 z" fill="param(fill)" fill-opacity="param(fill-opacity)" stroke="param(outline)" stroke-opacity="param(outline-opacity)" stroke-width="param(outline-width)" /></svg>
